<svg width="32" height="32" viewBox="0 0 32 32" fill="none" xmlns="http://www.w3.org/2000/svg">
<path d="M28.1608 7.19883H23.6008V3.99883C23.6008 2.22283 22.248 0.798828 20.5608 0.798828H11.4408C9.75358 0.798828 8.40078 2.22283 8.40078 3.99883V7.19883H3.84078C2.15358 7.19883 0.800781 8.62283 0.800781 10.3988V27.9988C0.800781 29.7748 2.15358 31.1988 3.84078 31.1988H28.1608C29.848 31.1988 31.2008 29.7748 31.2008 27.9988V10.3988C31.2008 8.62283 29.848 7.19883 28.1608 7.19883ZM11.4408 3.99883H20.5608V7.19883H11.4408V3.99883ZM28.1608 27.9988H3.84078V24.7988H28.1608V27.9988ZM28.1608 19.9988H3.84078V10.3988H8.40078V13.5988H11.4408V10.3988H20.5608V13.5988H23.6008V10.3988H28.1608V19.9988Z" fill="white"/>
</svg>
