<svg width="30" height="32" viewBox="0 0 30 32" fill="none" xmlns="http://www.w3.org/2000/svg">
<path d="M22.2687 16.0948L20.568 14.4031L12.7383 22.1915L9.33686 18.808L7.63615 20.4998L12.7383 25.5751L22.2687 16.0948V16.0948ZM26.2317 3.23106H24.6272V0.0390625H21.4183V3.23106H8.58277V0.0390625H5.37388V3.23106H3.76944C1.9885 3.23106 0.576591 4.66746 0.576591 6.42306L0.560547 28.7671C0.560547 29.6136 0.898625 30.4255 1.50041 31.0242C2.10219 31.6228 2.91839 31.9591 3.76944 31.9591H26.2317C27.9965 31.9591 29.4405 30.5227 29.4405 28.7671V6.42306C29.4405 4.66746 27.9965 3.23106 26.2317 3.23106ZM26.2317 28.7671H3.76944V11.2111H26.2317V28.7671Z" fill="white"/>
</svg>
