<svg width="38" height="18" viewBox="0 0 38 18" fill="none" xmlns="http://www.w3.org/2000/svg">
<path d="M29.45 0.480506C27.17 0.480506 25.0167 1.39024 23.4808 2.96604L12.35 13.1031C11.3367 14.1428 9.99083 14.7114 8.55 14.7114C5.58917 14.7114 3.1825 12.2584 3.1825 9.22049C3.1825 6.18261 5.58917 3.72957 8.55 3.72957C9.99083 3.72957 11.3367 4.29816 12.4133 5.40284L14.2025 7.02737L16.5933 4.8505L14.5983 3.04727C13.8054 2.23066 12.8627 1.58338 11.8245 1.14281C10.7864 0.702249 9.67344 0.477144 8.55 0.480506C3.83167 0.480506 0 4.41187 0 9.22049C0 14.0291 3.83167 17.9605 8.55 17.9605C10.83 17.9605 12.9833 17.0507 14.5192 15.4749L25.65 5.33786C26.6633 4.29816 28.0092 3.72957 29.45 3.72957C32.4108 3.72957 34.8175 6.18261 34.8175 9.22049C34.8175 12.2584 32.4108 14.7114 29.45 14.7114C28.025 14.7114 26.6633 14.1428 25.5867 13.0381L23.7817 11.3974L21.3908 13.5742L23.4017 15.3937C24.1967 16.2062 25.1402 16.8498 26.1781 17.2874C27.216 17.7251 28.3279 17.9483 29.45 17.9442C34.1683 17.9442 38 14.0291 38 9.20424C38 4.37938 34.1683 0.480506 29.45 0.480506V0.480506Z" fill="white"/>
</svg>
