<svg width="24" height="32" viewBox="0 0 24 32" fill="none" xmlns="http://www.w3.org/2000/svg">
<path d="M7.24935 30.2503C7.24935 31.1212 7.96185 31.8337 8.83268 31.8337H15.166C16.0369 31.8337 16.7494 31.1212 16.7494 30.2503V28.667H7.24935V30.2503ZM11.9994 0.166992C5.88768 0.166992 0.916016 5.13866 0.916016 11.2503C0.916016 15.0187 2.80018 18.3278 5.66602 20.3387V23.917C5.66602 24.7878 6.37852 25.5003 7.24935 25.5003H16.7494C17.6202 25.5003 18.3327 24.7878 18.3327 23.917V20.3387C21.1985 18.3278 23.0827 15.0187 23.0827 11.2503C23.0827 5.13866 18.111 0.166992 11.9994 0.166992Z" fill="white"/>
</svg>
