<svg width="36" height="30" viewBox="0 0 36 30" fill="none" xmlns="http://www.w3.org/2000/svg">
<path d="M21.2623 12.7387L18.0007 11.2503L21.2623 9.76199L22.7507 6.50033L24.239 9.76199L27.5007 11.2503L24.239 12.7387L22.7507 16.0003L21.2623 12.7387ZM5.33398 19.167L6.82232 15.9053L10.084 14.417L6.82232 12.9287L5.33398 9.66699L3.84565 12.9287L0.583984 14.417L3.84565 15.9053L5.33398 19.167ZM12.459 11.2503L14.1848 7.43449L18.0007 5.70866L14.1848 3.98283L12.459 0.166992L10.7332 3.98283L6.91732 5.70866L10.7332 7.43449L12.459 11.2503ZM6.12565 29.4587L15.6257 19.9428L21.959 26.2762L35.4173 11.1395L33.1848 8.90699L21.959 21.5262L15.6257 15.1928L3.75065 27.0837L6.12565 29.4587Z" fill="white"/>
</svg>
