<svg width="38" height="38" viewBox="0 0 38 38" fill="none" xmlns="http://www.w3.org/2000/svg">
<path d="M22.7357 29.069V25.1849C22.7357 24.3602 22.4965 23.9479 22.0182 23.9479C21.7378 23.9479 21.4657 24.0799 21.2018 24.3438V29.8854C21.4657 30.1493 21.7378 30.2812 22.0182 30.2812C22.4965 30.2812 22.7357 29.8772 22.7357 29.069ZM27.2878 26.0508H28.9206V25.2096C28.9206 24.3685 28.6484 23.9479 28.1042 23.9479C27.5599 23.9479 27.2878 24.3685 27.2878 25.2096V26.0508ZM13.1615 19.4701V21.2018H11.1823V31.6667H9.35156V21.2018H7.42188V19.4701H13.1615ZM18.1341 22.5872V31.6667H16.4766V30.6771C15.8333 31.4193 15.2066 31.7904 14.5964 31.7904C14.0521 31.7904 13.7057 31.5595 13.5573 31.0977C13.4583 30.8173 13.4089 30.372 13.4089 29.7617V22.5872H15.0417V29.2669C15.0417 29.6628 15.0499 29.8772 15.0664 29.9102C15.0829 30.1576 15.2066 30.2812 15.4375 30.2812C15.7674 30.2812 16.1137 30.0256 16.4766 29.5143V22.5872H18.1341ZM24.3685 25.3333V28.9453C24.3685 29.803 24.3108 30.4049 24.1953 30.7513C23.9974 31.444 23.5603 31.7904 22.8841 31.7904C22.3069 31.7904 21.7461 31.4523 21.2018 30.776V31.6667H19.5443V19.4701H21.2018V23.4531C21.7296 22.7934 22.2904 22.4635 22.8841 22.4635C23.5603 22.4635 23.9974 22.8099 24.1953 23.5026C24.3108 23.849 24.3685 24.4592 24.3685 25.3333ZM30.5781 28.5247V28.7474C30.5781 29.2257 30.5616 29.5803 30.5286 29.8112C30.4792 30.174 30.3555 30.5039 30.1576 30.8008C29.7122 31.4605 29.0525 31.7904 28.1784 31.7904C27.3207 31.7904 26.6528 31.477 26.1745 30.8503C25.8281 30.4049 25.6549 29.6957 25.6549 28.7227V25.5312C25.6549 24.5582 25.8199 23.849 26.1497 23.4036C26.628 22.7769 27.2878 22.4635 28.1289 22.4635C28.9701 22.4635 29.6133 22.7769 30.0586 23.4036C30.4049 23.8819 30.5781 24.5911 30.5781 25.5312V27.4115H27.2878V29.0195C27.2878 29.8607 27.5681 30.2812 28.1289 30.2812C28.5247 30.2812 28.7721 30.0668 28.8711 29.638C28.8711 29.6215 28.8752 29.5638 28.8835 29.4648C28.8917 29.3659 28.8958 29.2298 28.8958 29.0566V28.5247H30.5781ZM19.4206 8.13932V11.9987C19.4206 12.8398 19.1567 13.2604 18.6289 13.2604C18.1011 13.2604 17.8372 12.8398 17.8372 11.9987V8.13932C17.8372 7.28168 18.1011 6.85286 18.6289 6.85286C19.1567 6.85286 19.4206 7.28168 19.4206 8.13932ZM32.6068 25.7786C32.6068 22.8594 32.4501 20.7153 32.1367 19.3464C31.9718 18.6207 31.6172 18.0145 31.0729 17.528C30.5286 17.0415 29.9019 16.7569 29.1927 16.6745C26.9497 16.4271 23.5521 16.3034 19 16.3034C14.4644 16.3034 11.0751 16.4271 8.83203 16.6745C8.10634 16.7569 7.47548 17.0415 6.93945 17.528C6.40343 18.0145 6.05295 18.6207 5.88802 19.3464C5.55816 20.7812 5.39323 22.9253 5.39323 25.7786C5.39323 28.6814 5.55816 30.8255 5.88802 32.2109C6.05295 32.9201 6.40343 33.5221 6.93945 34.0169C7.47548 34.5117 8.09809 34.8003 8.80729 34.8828C11.0668 35.1302 14.4644 35.2539 19 35.2539C23.5356 35.2539 26.9332 35.1302 29.1927 34.8828C29.9019 34.8003 30.5245 34.5117 31.0605 34.0169C31.5966 33.5221 31.9471 32.9201 32.112 32.2109C32.4418 30.8255 32.6068 28.6814 32.6068 25.7786ZM13.9284 9.67318L16.1549 2.35026H14.2995L13.0378 7.17448L11.7266 2.35026H9.79688C9.91233 2.7296 10.102 3.29861 10.3659 4.05729L10.9596 5.76432C11.5369 7.46311 11.9162 8.76606 12.0977 9.67318V14.6458H13.9284V9.67318ZM21.0781 11.6771V8.46094C21.0781 7.50434 20.9049 6.78689 20.5586 6.30859C20.0803 5.68186 19.4371 5.36849 18.6289 5.36849C17.7878 5.36849 17.1445 5.68186 16.6992 6.30859C16.3529 6.78689 16.1797 7.50434 16.1797 8.46094V11.6771C16.1797 12.6337 16.3529 13.3511 16.6992 13.8294C17.1445 14.4562 17.7878 14.7695 18.6289 14.7695C19.4371 14.7695 20.0803 14.4562 20.5586 13.8294C20.9049 13.3841 21.0781 12.6667 21.0781 11.6771ZM25.556 14.6458H27.2135V5.49219H25.556V12.4935C25.1931 13.0048 24.8468 13.2604 24.5169 13.2604C24.2695 13.2604 24.1376 13.1285 24.1211 12.8646C24.1046 12.8316 24.0964 12.6172 24.0964 12.2214V5.49219H22.4388V12.7409C22.4388 13.3511 22.4883 13.8047 22.5872 14.1016C22.7687 14.5469 23.1233 14.7695 23.651 14.7695C24.2448 14.7695 24.8798 14.3984 25.556 13.6562V14.6458ZM38 7.125V30.875C38 32.8377 37.3032 34.5158 35.9095 35.9095C34.5158 37.3032 32.8377 38 30.875 38H7.125C5.16233 38 3.48416 37.3032 2.09049 35.9095C0.696832 34.5158 0 32.8377 0 30.875V7.125C0 5.16233 0.696832 3.48416 2.09049 2.09049C3.48416 0.696832 5.16233 0 7.125 0H30.875C32.8377 0 34.5158 0.696832 35.9095 2.09049C37.3032 3.48416 38 5.16233 38 7.125Z" fill="white"/>
</svg>
